<svg width="16" height="16" viewBox="0 0 16 16" fill="none" xmlns="http://www.w3.org/2000/svg">
<path d="M0 13.8745C0 15.0466 0.816828 16 1.82088 16H2.22555H13.3361H14.1453H14.9884V15.0554H14.1453V12.6937H14.9884V12.2804H15.393H16V11.3357H15.393V8.97421H16V8.0296H15.393H15.3425V7.71493V7.24259V7.22232L14.3433 5.0378H15.3931V3.76755L12.7524 0H3.43608L1.03353 4.4189C0.622643 4.80914 0.354117 5.39673 0.354117 6.06177C0.354117 7.2265 1.16141 8.17341 2.15717 8.185C1.48719 8.49912 1.01162 9.26201 1.01162 10.1551C1.01162 10.8035 1.26696 11.3777 1.66048 11.7679C0.732445 11.8644 0 12.7666 0 13.8745ZM1.16334 6.06177C1.16334 5.62131 1.37322 5.24084 1.68027 5.03787H13.7407V7.24264H2.17498C1.61721 7.24259 1.16334 6.71272 1.16334 6.06177ZM2.83252 8.97426H3.23715H14.5837V11.3358H3.23715H2.83252C2.27475 11.3358 1.82088 10.8062 1.82088 10.1551C1.8209 9.50373 2.27475 8.97426 2.83252 8.97426ZM1.8209 12.6937H2.22557H13.3361V15.0553H2.22555H1.82088C1.26316 15.0553 0.809302 14.5258 0.809302 13.8745C0.809302 13.2232 1.26318 12.6937 1.8209 12.6937Z" fill="black"/>
</svg>
