<svg width="17" height="16" viewBox="0 0 17 16" fill="none" xmlns="http://www.w3.org/2000/svg">
<path d="M8.7915 4.13087H8.79182C8.79215 4.1312 8.79215 4.1312 8.79215 4.1312L8.7915 4.13087Z" fill="black"/>
<path d="M13.183 9.11036C13.5126 8.7323 13.9081 8.13689 13.8581 7.4933L10.4635 4.29839C10.4635 4.29839 9.84867 4.15499 9.11388 4.30511C9.00757 4.23977 8.89999 4.18024 8.79168 4.13089C8.24154 3.87933 7.69262 3.8223 7.28157 3.82602C7.2552 3.82602 7.2301 3.82717 7.20477 3.82789L6.57514 4.42049L6.67335 4.41121C6.68491 4.41027 6.70217 4.40727 6.71346 4.40474C6.72874 4.40127 6.97291 4.34821 7.31995 4.34867C7.6311 4.34867 8.02223 4.39246 8.41064 4.54327C8.19057 4.65124 7.97322 4.79392 7.77042 4.98483C6.64822 6.04102 5.62815 7.00105 5.62815 7.00105L5.62865 7.00152C5.62251 7.0073 5.61636 7.01217 5.61019 7.01796C5.3195 7.29133 5.30844 7.7278 5.57672 8.01414C5.58705 8.02502 5.5984 8.03664 5.61019 8.04774C5.91197 8.33202 6.40182 8.33246 6.70433 8.04774L7.88264 6.93874C8.08568 7.00849 8.28556 7.04949 8.47731 7.06986C8.73822 7.09767 8.98412 7.08724 9.20224 7.05827C9.73415 6.98739 9.98669 6.91233 9.98669 6.91233L12.764 9.52649C12.764 9.52649 12.7797 9.51352 12.8036 9.49289L13.2048 9.87052C13.3094 9.96924 13.3604 10.0959 13.3607 10.2252C13.3604 10.354 13.3092 10.481 13.2046 10.5796C13.0998 10.6779 12.9653 10.726 12.8282 10.7263C12.6911 10.726 12.5565 10.6779 12.4516 10.5796C12.3999 10.531 12.3283 10.503 12.2552 10.5032C12.1819 10.503 12.1105 10.531 12.0588 10.5796C12.0071 10.6283 11.9776 10.6955 11.9776 10.7645C11.9776 10.8333 12.0071 10.9005 12.0588 10.9494C12.1634 11.0478 12.2146 11.1746 12.2148 11.3038C12.2146 11.4326 12.1634 11.5596 12.0585 11.6581C11.9536 11.7565 11.819 11.8047 11.6822 11.8052C11.5448 11.8047 11.4104 11.7565 11.3056 11.6581C11.2539 11.6096 11.1822 11.5816 11.1092 11.5819C11.0358 11.5816 10.9644 11.6097 10.9127 11.6581C10.861 11.707 10.8315 11.7741 10.8315 11.8432C10.8315 11.9117 10.8611 11.9792 10.9127 12.0281C11.0173 12.1265 11.0685 12.2532 11.0688 12.3821C11.0685 12.5113 11.0173 12.6382 10.9127 12.7365C10.8078 12.8352 10.6732 12.8834 10.5361 12.8836C10.399 12.8834 10.2644 12.8352 10.1595 12.7365L9.92444 12.5155C9.92417 12.515 9.92367 12.5146 9.92321 12.5141C9.87178 12.4657 9.79989 12.4376 9.72704 12.4376C9.65367 12.4376 9.58228 12.4657 9.53061 12.5145C9.47892 12.5627 9.44913 12.6304 9.44913 12.6992C9.44913 12.768 9.47892 12.8351 9.53061 12.8838C9.6352 12.9825 9.6864 13.1095 9.68667 13.2387C9.68617 13.3675 9.63497 13.4945 9.53038 13.5929C9.42576 13.6914 9.29112 13.7396 9.15399 13.7398C9.01666 13.7396 8.88199 13.6914 8.7774 13.5929L8.61026 13.4356L8.6681 13.3814C8.96885 13.0983 8.96912 12.6394 8.66833 12.3563C8.36754 12.0732 7.87989 12.0732 7.57913 12.3563L7.52129 12.4107L7.49247 12.3839C7.64066 12.1112 7.59686 11.7704 7.35461 11.5425C7.11243 11.3145 6.75035 11.2733 6.46062 11.4127L6.40325 11.3587C6.55143 11.0863 6.50787 10.7455 6.26565 10.5175C6.02347 10.2896 5.66112 10.2484 5.37166 10.3878L5.31428 10.3338C5.46247 10.0614 5.41891 9.72058 5.17669 9.49264C4.93424 9.26468 4.57216 9.22346 4.28266 9.36289L4.00452 9.10111L3.98752 9.0863C3.98506 9.08446 3.94273 9.05014 3.87775 8.98899C3.84255 8.95586 3.80045 8.91439 3.75443 8.86599L3.7542 8.86574L3.74803 8.85949L3.74902 8.86064C3.60306 8.70633 3.41965 8.48161 3.28378 8.21755C3.19934 8.05352 3.13337 7.87605 3.10113 7.69002L2.64429 8.12002C2.6844 8.23449 2.73141 8.34405 2.78411 8.44577C2.95125 8.76918 3.16465 9.02864 3.33448 9.20817L3.33524 9.20958L3.34139 9.21583L3.34112 9.21514C3.39428 9.27099 3.44302 9.31892 3.48512 9.35877C3.55083 9.42039 3.59861 9.46071 3.6188 9.47714L3.86125 9.70536L3.41374 10.1265C3.11292 10.4096 3.11318 10.8683 3.41374 11.1515C3.71452 11.4345 4.20188 11.4345 4.50293 11.1515C4.20188 11.4345 4.20211 11.8935 4.50293 12.1766C4.80372 12.4595 5.29107 12.4595 5.59189 12.1766C5.29107 12.4595 5.29107 12.9186 5.59189 13.2015C5.89291 13.4846 6.3803 13.4846 6.68109 13.2015L7.12834 12.7806L6.90558 12.9905C6.60456 13.2736 6.60476 13.7323 6.90558 14.0154C7.2064 14.2985 7.69352 14.2985 7.99454 14.0154L8.2173 13.8055L8.38444 13.9628C8.59611 14.1623 8.87625 14.2632 9.15389 14.2628C9.4313 14.2632 9.71141 14.1623 9.92311 13.9628C10.1006 13.7957 10.2037 13.5836 10.2328 13.3656C10.3317 13.3926 10.4338 13.4066 10.536 13.4066C10.8137 13.4066 11.0935 13.306 11.3055 13.1063C11.5172 12.9071 11.6245 12.6434 11.6242 12.3826C11.6242 12.3633 11.6223 12.3443 11.6213 12.3253C11.6415 12.3263 11.6619 12.3279 11.6821 12.3279C11.9595 12.3283 12.2396 12.2273 12.4513 12.0279C12.6632 11.8284 12.7703 11.565 12.77 11.3039C12.77 11.2847 12.7685 11.2655 12.7674 11.2465C12.7875 11.2476 12.8077 11.2493 12.8281 11.2493C13.1055 11.2493 13.3857 11.1487 13.5971 10.9495C13.8093 10.75 13.9163 10.4866 13.9161 10.2253C13.9166 9.96399 13.8095 9.70033 13.5976 9.50108L13.183 9.11036Z" fill="black"/>
<path d="M4.60079 1.84293L0 6.1728L1.90765 7.96849L6.50864 3.63833L4.60079 1.84293ZM2.30025 6.4369C2.11441 6.61205 1.81289 6.61205 1.62702 6.4369C1.44118 6.26221 1.44118 5.97821 1.62702 5.80352C1.81286 5.62836 2.11441 5.62836 2.30025 5.80352C2.48635 5.97821 2.48635 6.26224 2.30025 6.4369Z" fill="black"/>
<path d="M12.3992 1.73727L10.4913 3.53268L15.0924 7.8628L17 6.0674L12.3992 1.73727ZM14.6995 6.33152C14.5137 6.15662 14.5137 5.87259 14.6995 5.6979C14.8856 5.52274 15.1869 5.52274 15.373 5.6979C15.5588 5.87255 15.5588 6.15659 15.373 6.33152C15.1869 6.50643 14.8856 6.50643 14.6995 6.33152Z" fill="black"/>
</svg>
