<svg width="20" height="19" viewBox="0 0 16 16" fill="none" xmlns="http://www.w3.org/2000/svg">
<path d="M6.39886 7.95171L7.46798 6.88284C6.22401 6.31118 4.70098 6.53662 3.67767 7.56018C2.36477 8.87287 2.36477 11.0093 3.67767 12.3225C4.99033 13.6354 7.12704 13.6354 8.43973 12.3225C9.46304 11.2992 9.68873 9.7759 9.11707 8.5319L8.04798 9.60099C8.15364 10.2252 7.9682 10.8892 7.48739 11.3699C6.69958 12.1579 5.41786 12.1579 4.63008 11.3699C3.84227 10.5821 3.84227 9.30037 4.63008 8.51277C5.11086 8.03171 5.77486 7.84602 6.39886 7.95171Z" fill="black"/>
<path d="M10.1135 7.53578C11.1861 9.34441 10.946 11.7214 9.39233 13.2748C7.55401 15.1132 4.56336 15.1132 2.7253 13.2748C0.886989 11.4368 0.886989 8.44588 2.7253 6.6076C4.27852 5.05413 6.65577 4.81407 8.46436 5.88647L9.43986 4.91069C7.08401 3.32654 3.8538 3.57413 1.77268 5.65497C-0.590729 8.01813 -0.590729 11.864 1.77268 14.2272C4.13611 16.5909 7.98151 16.5909 10.3449 14.2272C12.4263 12.1461 12.6736 8.91588 11.0889 6.55975L10.1135 7.53578Z" fill="black"/>
<path d="M15.9774 2.65123C15.9271 2.52013 15.7998 2.43935 15.6556 2.44591L13.4505 2.54935L13.5541 0.344479C13.5604 0.200042 13.4796 0.0732291 13.3486 0.0224167C13.2183 -0.0278958 13.0635 0.00832293 12.9573 0.11401L10.6042 2.46732L10.4852 5.00863L6.20727 9.28628C5.98965 9.23697 5.75212 9.29535 5.58252 9.46491C5.31933 9.7281 5.31933 10.1543 5.58252 10.4175C5.84546 10.6807 6.27196 10.6807 6.53515 10.4175C6.70446 10.2479 6.76312 10.0104 6.71377 9.79253L10.9915 5.5146L13.5325 5.39585L15.8859 3.04223C15.9918 2.93632 16.0278 2.78204 15.9774 2.65123Z" fill="black"/>
</svg>
