<svg width="15" height="15" viewBox="0 0 15 15" fill="none" xmlns="http://www.w3.org/2000/svg">
<path d="M10.4861 4.72222C10.3479 4.33003 10.0955 3.98817 9.7613 3.74065C9.42715 3.49313 9.02657 3.35127 8.61111 3.33333H5.83333C5.2808 3.33333 4.7509 3.55283 4.36019 3.94353C3.96949 4.33423 3.75 4.86413 3.75 5.41667C3.75 5.9692 3.96949 6.4991 4.36019 6.88981C4.7509 7.28051 5.2808 7.5 5.83333 7.5H8.61111C9.16365 7.5 9.69355 7.71949 10.0843 8.11019C10.475 8.50089 10.6944 9.0308 10.6944 9.58333C10.6944 10.1359 10.475 10.6658 10.0843 11.0565C9.69355 11.4472 9.16365 11.6667 8.61111 11.6667H5.83333C5.41788 11.6487 5.0173 11.5069 4.68315 11.2593C4.34899 11.0118 4.09656 10.67 3.95833 10.2778M7.22222 1.25V3.33333M7.22222 11.6667V13.75" stroke="#212121" stroke-width="2" stroke-linecap="round" stroke-linejoin="round"/>
</svg>
