<?xml version="1.0" encoding="utf-8"?>
<!-- Generator: Adobe Illustrator 25.2.1, SVG Export Plug-In . SVG Version: 6.00 Build 0)  -->
<svg version="1.1" id="Layer_1" xmlns="http://www.w3.org/2000/svg" xmlns:xlink="http://www.w3.org/1999/xlink" x="0px" y="0px"
	 viewBox="0 0 1000 750" enable-background="new 0 0 1000 750" xml:space="preserve">
<g>
	<path fill="#00A08C" d="M625.1,124.4c-36.6-21.7-79.4-34.2-125.1-34.2c-50.4,0-97.2,15.2-136.2,41.2v33.1l39.5,40.4v0l83.7,85.6
		l113.9-82.3l0.1,0.2c15.6-11.7,24.2-18.7,24.2-20.2L625.1,124.4z M553.2,180.1c-1.6,30.6-27.8,54.1-58.4,52.4
		c-30.6-1.6-54.1-27.8-52.4-58.4c1.6-30.6,27.8-54.1,58.4-52.4C531.4,123.4,554.9,149.5,553.2,180.1z"/>
	<path fill="#30A3DB" d="M254.4,335.8c0,1.9,0,3.7,0.1,5.6h172.3c6.5-7.2,14.2-14.6,22.9-22.3L311.8,178
		C276,220.7,254.4,275.7,254.4,335.8z"/>
	<path fill="#00A08C" d="M688.2,178.1l-50.3,58.7l-12.7-25.7v42.3c0,32.6-15.3,62.4-34.2,88h154.4c0-1.9,0.1-3.7,0.1-5.6
		C745.6,275.7,724,220.7,688.2,178.1z"/>
	<g>
		<path fill="#226296" d="M344.2,211.1c-27.4,34.2-43.8,77.5-43.8,124.7c0,1.9,0,3.7,0.1,5.6h126.4c6.5-7.2,14.2-14.6,22.9-22.3
			L344.2,211.1z"/>
	</g>
	<path fill="#226296" d="M254.5,341.3c2,92.1,54.8,171.6,131.4,211.9l0-108.9c0-18.9-1.2-56.4,41-103H254.5z M649.9,341.3
		c1.3,82.4-67.4,134.4-67.4,134.4s-0.4,0.2-0.8,0.5c-0.4,0.3-0.6,0.5-0.6,0.5L580,480l-8.5,20.2l-17.1,75.1
		c107.7-24.3,188.6-119.5,191.2-234H649.9z"/>
	<path fill="#0F304D" d="M612.9,444.6c-15.6,20.1-30.3,31.2-30.3,31.2s-0.4,0.2-0.8,0.5c-0.4,0.3-0.6,0.5-0.6,0.5L580,480l-8.5,20.2
		l-17.1,75.1c48.4-10.9,91.3-36.1,124.2-70.9L612.9,444.6z M385.9,553.2l0-104.6L322.1,505C340.5,524.4,362,540.7,385.9,553.2z"/>
	<path fill="#30A3DB" d="M300.5,341.3c1.8,65.5,35.1,123.1,85.4,158.2l0-55.2c0-18.9-1.2-56.4,41-103H300.5z"/>
	<path fill="#00A08C" d="M649.9,341.3c1.3,82.4-67.4,134.4-67.4,134.4s-0.4,0.2-0.8,0.5c-0.4,0.3-0.6,0.5-0.6,0.5L580,480l-8.5,20.2
		l-5.5,24c76.1-26.7,131.2-98.2,133.5-182.9H649.9z"/>
	<path fill="#30A3DB" d="M395.5,557.8v-29.4c0,0-3.6-34.8,34.9-74.8C466.6,415.8,551.1,341.3,568,319c13.6-18,23.5-37.2,22.2-70.9
		c-4.6,0.4-95.8,67.5-123.8,92c-28,24.5-78.1,83-80.5,148v59.2v5.9C385.9,553.2,389.8,555.5,395.5,557.8z"/>
	<path fill="#0F304D" d="M337.6,327.1c-2.6,48.4,16.3,93,48.3,124.5v-7.3c0-21.8-1.6-68.5,63.9-125.2l-79.5-81.3
		C351.3,262.7,339.4,293.4,337.6,327.1z"/>
	<circle fill="#226296" cx="682" cy="129.6" r="29.1"/>
	<circle fill="#00C853" cx="318.8" cy="129.6" r="29.1"/>
	<path fill="#0F304D" d="M546.5,391.5c-4.6,4.6-9.3,9.2-14.1,13.7c-30.4,28.5-64,55.4-87.3,90.4c-10.9,16.4-18.4,35.8-17.8,55.7
		c0,0,0,58.8,0,89.8H342c-4.4,0-8.1,3.6-8.1,8.1v2.6c0,4.4,3.6,8.1,8.1,8.1c0,0,125.2,0,125.2,0c0,0,0-82.2,0-82.4
		c0-33.8,22.8-58.5,45.4-81.4c40.7-41.3,95.6-89.9,112.7-129.3l0-113.3C625.3,310.7,578.6,359.3,546.5,391.5z"/>
	<path fill="#A0DC00" d="M532.4,405.2c-3.4,3.2-6.9,6.4-10.3,9.5l27.1,45.3c32-31.1,63.8-65.1,76-93.4l0-113.3
		c0,57.3-46.7,105.9-78.7,138.1C541.9,396.1,537.2,400.7,532.4,405.2z"/>
	<path fill="#00C853" d="M539,140c9.5,10.6,15,24.8,14.2,40.1c-1.6,30.6-27.8,54.1-58.4,52.4c-30.6-1.6-54.1-27.8-52.4-58.4
		c0.7-12.6,5.5-24.1,13.2-33c-29,6.6-55.6,19.5-78.2,37.1l57.8,59.1l52,53.2l113.9-82.3l0,0l4-2.9c13-9.8,20.3-15.8,20.3-17.2
		c0,0,0,48.3,0,65.1c0,32.6-15.3,62.4-34.2,88l108.4,0c0.1-1.9,0.1-3.7,0.1-5.6C699.6,238.9,630.6,158.2,539,140z"/>
	<path fill="#00C853" d="M490.8,443.5l31.8,42.4c12.3-12.2,25.5-24.7,38.2-37.3l-30.4-41.6C517.4,419.2,503.8,431.1,490.8,443.5z"/>
	<path fill="#0F304D" d="M625.3,224.5c26.2,31.5,41,72.8,38.6,116.9c-3.2,59.1-35,107.8-82.7,135.4c48.9-49.6,44-110.5,44-110.5v-88
		L625.3,224.5z"/>
	<path fill="#0F304D" d="M553.1,182c-2.6,29.7-28.3,52.2-58.3,50.6c-27.4-1.5-49.1-22.6-52.1-49c-14.1,5.3-27.3,12.5-39.3,21.4
		l83.7,85.6l113.9-82.3C586.8,197.1,570.6,188.1,553.1,182z"/>
	<path fill="#0F304D" d="M672.8,659.7h-117c-4.4,0-8.1-3.6-8.1-8.1v-2.6c0-4.4,3.6-8.1,8.1-8.1h117c4.4,0,8.1,3.6,8.1,8.1v2.6
		C680.8,656.1,677.2,659.7,672.8,659.7z"/>
	<path fill="#A0DC00" d="M580.6,477.2c-46.5,39.7-79.7,73.8-79,110v72.5h79.6v-183C581.2,476.7,580.7,477.1,580.6,477.2z"/>
	<path fill="#00C853" d="M542.3,512.2c-24,24.3-39.5,47.3-40.6,71c0,1.3-0.1,2.5-0.1,3.8c0,0,0,0.1,0,0.1v72.5h40.6V512.2z"/>
</g>
</svg>
