<svg width="20" height="20" viewBox="0 0 20 20" fill="none" xmlns="http://www.w3.org/2000/svg">
<g clip-path="url(#clip0_74_588)">
<path d="M9.50383 3.61699L9.99997 3.90049L10.4961 3.61698L14.7143 1.2066V5.71429C14.7143 8.01469 13.0656 9.93217 10.885 10.3458L10.0714 10.5001V11.3283V15.7366V18.3807L11.8211 16.3983C12.4246 15.7145 13.3045 15.2857 14.2857 15.2857H16.8571V15.7143C16.8571 17.529 15.3861 19 13.5714 19H6.42854C4.61388 19 3.14282 17.529 3.14282 15.7143V15.2857H5.71425C6.69548 15.2857 7.57529 15.7145 8.17881 16.3983L9.92854 18.3807V15.7366V11.3283V10.5001L9.1149 10.3458C6.93434 9.93217 5.28568 8.01469 5.28568 5.71429V1.20662L9.50383 3.61699ZM4.85821 0.962353L4.85821 0.962356L4.85821 0.962353Z" fill="white" stroke="black" stroke-width="2"/>
</g>
<defs>
<clipPath id="clip0_74_588">
<rect width="20" height="20" fill="white"/>
</clipPath>
</defs>
</svg>
