<svg width="300" height="50" viewBox="0 0 300 50" fill="none" xmlns="http://www.w3.org/2000/svg">
<g filter="url(#filter0_d_2315_635)">
<path d="M35.2 32.56C35.2 33.5733 35.24 34.4 35.32 35.04C35.4267 35.6533 35.6267 36.1333 35.92 36.48C36.24 36.8 36.6667 37.0267 37.2 37.16C37.76 37.2933 38.4933 37.3733 39.4 37.4V39H24.72V37.4C25.7067 37.3733 26.4933 37.2933 27.08 37.16C27.6933 37.0267 28.16 36.8 28.48 36.48C28.8267 36.16 29.0533 35.7067 29.16 35.12C29.2667 34.5333 29.32 33.7733 29.32 32.84V24.48H14.48V32.56C14.48 33.5733 14.5333 34.4 14.64 35.04C14.7467 35.6533 14.96 36.1333 15.28 36.48C15.6 36.8 16.0533 37.0267 16.64 37.16C17.2533 37.2933 18.0533 37.3733 19.04 37.4V39H4.4V37.4C5.30667 37.3733 6.02667 37.2933 6.56 37.16C7.12 37.0267 7.54667 36.8 7.84 36.48C8.13333 36.16 8.33333 35.7067 8.44 35.12C8.54667 34.5333 8.6 33.7733 8.6 32.84V14.36C8.6 13.4267 8.54667 12.68 8.44 12.12C8.36 11.5333 8.18667 11.08 7.92 10.76C7.65333 10.4133 7.26667 10.1867 6.76 10.08C6.28 9.94666 5.64 9.85333 4.84 9.8V8.2H18.64V9.8C17.7333 9.82667 17 9.90667 16.44 10.04C15.9067 10.1733 15.4933 10.4133 15.2 10.76C14.9067 11.1067 14.7067 11.5867 14.6 12.2C14.52 12.8133 14.48 13.6267 14.48 14.64V22H29.32V14.36C29.32 13.4267 29.2667 12.68 29.16 12.12C29.0533 11.5333 28.8533 11.08 28.56 10.76C28.2667 10.4133 27.84 10.1867 27.28 10.08C26.7467 9.94666 26.0267 9.85333 25.12 9.8V8.2H38.96V9.8C38.16 9.82667 37.5067 9.90667 37 10.04C36.52 10.1733 36.1467 10.4133 35.88 10.76C35.6133 11.1067 35.4267 11.5867 35.32 12.2C35.24 12.8133 35.2 13.6267 35.2 14.64V32.56ZM61.5141 35.28C59.0874 38.0267 56.0607 39.4 52.4341 39.4C50.7807 39.4 49.2741 39.1467 47.9141 38.64C46.5807 38.1067 45.4341 37.3733 44.4741 36.44C43.5141 35.48 42.7674 34.3467 42.2341 33.04C41.7007 31.7333 41.4341 30.28 41.4341 28.68C41.4341 27.0267 41.7141 25.52 42.2741 24.16C42.8341 22.7733 43.6207 21.5867 44.6341 20.6C45.6741 19.5867 46.8874 18.8 48.2741 18.24C49.6874 17.68 51.2341 17.4 52.9141 17.4C55.7407 17.4 57.9407 18.16 59.5141 19.68C61.0874 21.2 61.8741 23.3333 61.8741 26.08C61.8741 26.5067 61.8074 26.7733 61.6741 26.88C61.5407 26.96 61.1674 27 60.5541 27H47.6741C47.5674 27.24 47.5141 27.68 47.5141 28.32C47.5141 30.9333 48.0741 33 49.1941 34.52C50.3407 36.04 51.8874 36.8 53.8341 36.8C54.9541 36.8 56.0607 36.5467 57.1541 36.04C58.2741 35.5333 59.3541 34.8133 60.3941 33.88L61.5141 35.28ZM53.7541 24.76C54.8207 24.76 55.5007 24.7067 55.7941 24.6C56.1141 24.4667 56.2741 24.1733 56.2741 23.72C56.2741 22.5467 55.9407 21.5867 55.2741 20.84C54.6074 20.0933 53.7674 19.72 52.7541 19.72C51.6074 19.72 50.5807 20.2 49.6741 21.16C48.7941 22.0933 48.2207 23.2933 47.9541 24.76H53.7541ZM77.0725 27.6C74.8325 28.6133 73.1392 29.56 71.9925 30.44C70.8725 31.2933 70.3125 32.1867 70.3125 33.12C70.3125 33.8933 70.5258 34.5067 70.9525 34.96C71.3792 35.4133 71.9125 35.64 72.5525 35.64C73.1925 35.64 73.7925 35.5333 74.3525 35.32C74.9125 35.08 75.3925 34.7733 75.7925 34.4C76.1925 34.0267 76.4992 33.5867 76.7125 33.08C76.9525 32.5467 77.0725 31.9867 77.0725 31.4V27.6ZM77.0725 25.48V23.8C77.0725 22.2533 76.7925 21.1333 76.2325 20.44C75.6992 19.72 74.8592 19.36 73.7125 19.36C72.9392 19.36 72.3525 19.5733 71.9525 20C71.5525 20.4 71.1792 21.08 70.8325 22.04C70.5925 22.7067 70.2458 23.2267 69.7925 23.6C69.3658 23.9733 68.7658 24.16 67.9925 24.16C67.2458 24.16 66.6725 23.9333 66.2725 23.48C65.8725 23.0267 65.6725 22.3867 65.6725 21.56C65.6725 20.28 66.3658 19.2667 67.7525 18.52C69.1658 17.7733 71.2858 17.4 74.1125 17.4C77.0992 17.4 79.2325 17.9467 80.5125 19.04C81.7925 20.1067 82.4325 21.9067 82.4325 24.44V33.2C82.4325 35.4667 82.8858 36.6 83.7925 36.6C84.2992 36.6 84.7658 36.4267 85.1925 36.08L85.7925 37.24C85.4192 37.9067 84.8325 38.44 84.0325 38.84C83.2592 39.2133 82.3792 39.4 81.3925 39.4C80.1658 39.4 79.2325 39.0267 78.5925 38.28C77.9525 37.5333 77.6325 36.48 77.6325 35.12H77.4325C76.6592 36.5067 75.6592 37.56 74.4325 38.28C73.2058 39 71.8058 39.36 70.2325 39.36C68.5525 39.36 67.2058 38.8933 66.1925 37.96C65.1792 37 64.6725 35.76 64.6725 34.24C64.6725 33.0667 65.1925 31.9733 66.2325 30.96C67.2725 29.92 69.0058 28.9067 71.4325 27.92L77.0725 25.48ZM96.1613 32.44C96.1613 33.5067 96.2013 34.36 96.2812 35C96.3613 35.64 96.5213 36.1333 96.7613 36.48C97.0013 36.8267 97.3479 37.0667 97.8013 37.2C98.2546 37.3067 98.8679 37.3733 99.6413 37.4V39H87.0413V37.4C87.7879 37.3733 88.3879 37.2933 88.8413 37.16C89.3213 37 89.6813 36.76 89.9213 36.44C90.1879 36.0933 90.3613 35.6267 90.4413 35.04C90.5479 34.4267 90.6013 33.6533 90.6013 32.72V16.2C90.6013 14.6533 90.5746 13.3867 90.5213 12.4C90.4679 11.3867 90.4013 10.6933 90.3213 10.32C90.1879 9.65333 89.8813 9.21333 89.4013 9C88.9479 8.78667 88.1079 8.68 86.8813 8.68V7.32L96.1613 5.8V32.44ZM101.5 20V18.2C103.1 17.7467 104.433 17.0667 105.5 16.16C106.593 15.2267 107.407 14.16 107.94 12.96H109.98V17.8H114.58V20H109.98V32.28C109.98 33.9333 110.153 35.1067 110.5 35.8C110.873 36.4933 111.487 36.84 112.34 36.84C113.38 36.84 114.167 36.36 114.7 35.4L115.54 36.56C114.793 38.4533 113.033 39.4 110.26 39.4C108.42 39.4 106.98 38.9733 105.94 38.12C104.927 37.2667 104.42 36.0667 104.42 34.52V20H101.5ZM125.533 32.44C125.533 33.5333 125.56 34.4 125.613 35.04C125.693 35.6533 125.84 36.1333 126.053 36.48C126.293 36.8267 126.64 37.0533 127.093 37.16C127.573 37.2667 128.213 37.3467 129.013 37.4V39H116.413V37.4C117.213 37.3467 117.853 37.2667 118.333 37.16C118.813 37.0533 119.173 36.84 119.413 36.52C119.653 36.2 119.8 35.7467 119.853 35.16C119.933 34.5467 119.973 33.7333 119.973 32.72V16.28C119.973 14.68 119.947 13.4267 119.893 12.52C119.867 11.5867 119.8 10.88 119.693 10.4C119.613 10.0533 119.52 9.78667 119.413 9.6C119.307 9.38667 119.133 9.22667 118.893 9.12C118.68 8.98667 118.373 8.90667 117.973 8.88C117.6 8.82666 117.12 8.8 116.533 8.8V7.32L125.453 5.8V20.56H125.613C126.44 19.4667 127.36 18.6667 128.373 18.16C129.413 17.6533 130.653 17.4 132.093 17.4C134.707 17.4 136.733 18.2 138.173 19.8C138.867 20.6 139.413 21.5733 139.813 22.72C140.213 23.84 140.413 25.0133 140.413 26.24V32.44C140.413 33.56 140.44 34.44 140.493 35.08C140.547 35.6933 140.68 36.1733 140.893 36.52C141.133 36.84 141.48 37.0533 141.933 37.16C142.387 37.2667 143.013 37.3467 143.813 37.4V39H131.293V37.4C132.093 37.3733 132.72 37.3067 133.173 37.2C133.653 37.0667 134.013 36.84 134.253 36.52C134.52 36.2 134.68 35.7467 134.733 35.16C134.813 34.5467 134.853 33.7333 134.853 32.72V27.8C134.853 24.9733 134.547 22.9733 133.933 21.8C133.32 20.6267 132.267 20.04 130.773 20.04C129.173 20.04 127.907 20.6267 126.973 21.8C126.52 22.4133 126.16 23.1733 125.893 24.08C125.653 24.9867 125.533 26 125.533 27.12V32.44ZM146.488 28.8H148.048C148.421 31.3333 149.435 33.3333 151.088 34.8C152.741 36.24 154.781 36.96 157.208 36.96C158.195 36.96 159.101 36.84 159.928 36.6C160.755 36.36 161.461 36.0267 162.048 35.6C162.635 35.1467 163.088 34.6267 163.408 34.04C163.728 33.4267 163.888 32.7467 163.888 32C163.888 31.36 163.781 30.8133 163.568 30.36C163.381 29.88 163.008 29.4267 162.448 29C161.888 28.5467 161.115 28.0933 160.128 27.64C159.168 27.1867 157.915 26.6667 156.368 26.08C153.248 24.88 150.941 23.4933 149.448 21.92C147.955 20.32 147.208 18.44 147.208 16.28C147.208 15.0267 147.448 13.88 147.928 12.84C148.408 11.8 149.075 10.9067 149.928 10.16C150.808 9.41333 151.848 8.84 153.048 8.44C154.275 8.01333 155.621 7.8 157.088 7.8C158.448 7.8 159.728 8.01333 160.928 8.44C162.128 8.86667 163.315 9.50667 164.488 10.36L165.208 8.36H166.168L166.608 17H165.048C164.408 14.8133 163.408 13.1467 162.048 12C160.688 10.8267 159.115 10.24 157.328 10.24C155.675 10.24 154.328 10.6533 153.288 11.48C152.275 12.28 151.768 13.32 151.768 14.6C151.768 15.16 151.861 15.6667 152.048 16.12C152.235 16.5467 152.581 16.96 153.088 17.36C153.595 17.76 154.288 18.1733 155.168 18.6C156.048 19 157.181 19.4533 158.568 19.96C160.435 20.68 162.021 21.4133 163.328 22.16C164.661 22.88 165.741 23.6667 166.568 24.52C167.421 25.3467 168.048 26.2267 168.448 27.16C168.848 28.0933 169.048 29.12 169.048 30.24C169.048 31.6 168.755 32.84 168.168 33.96C167.581 35.08 166.755 36.04 165.688 36.84C164.648 37.64 163.395 38.2667 161.928 38.72C160.488 39.1733 158.888 39.4 157.128 39.4C155.528 39.4 154.088 39.1867 152.808 38.76C151.528 38.3067 150.208 37.5867 148.848 36.6L148.048 39H147.088L146.488 28.8ZM171.617 20V18.2C173.217 17.7467 174.551 17.0667 175.617 16.16C176.711 15.2267 177.524 14.16 178.057 12.96H180.097V17.8H184.697V20H180.097V32.28C180.097 33.9333 180.271 35.1067 180.617 35.8C180.991 36.4933 181.604 36.84 182.457 36.84C183.497 36.84 184.284 36.36 184.817 35.4L185.657 36.56C184.911 38.4533 183.151 39.4 180.377 39.4C178.537 39.4 177.097 38.9733 176.057 38.12C175.044 37.2667 174.537 36.0667 174.537 34.52V20H171.617ZM199.651 27.6C197.411 28.6133 195.717 29.56 194.571 30.44C193.451 31.2933 192.891 32.1867 192.891 33.12C192.891 33.8933 193.104 34.5067 193.531 34.96C193.957 35.4133 194.491 35.64 195.131 35.64C195.771 35.64 196.371 35.5333 196.931 35.32C197.491 35.08 197.971 34.7733 198.371 34.4C198.771 34.0267 199.077 33.5867 199.291 33.08C199.531 32.5467 199.651 31.9867 199.651 31.4V27.6ZM199.651 25.48V23.8C199.651 22.2533 199.371 21.1333 198.811 20.44C198.277 19.72 197.437 19.36 196.291 19.36C195.517 19.36 194.931 19.5733 194.531 20C194.131 20.4 193.757 21.08 193.411 22.04C193.171 22.7067 192.824 23.2267 192.371 23.6C191.944 23.9733 191.344 24.16 190.571 24.16C189.824 24.16 189.251 23.9333 188.851 23.48C188.451 23.0267 188.251 22.3867 188.251 21.56C188.251 20.28 188.944 19.2667 190.331 18.52C191.744 17.7733 193.864 17.4 196.691 17.4C199.677 17.4 201.811 17.9467 203.091 19.04C204.371 20.1067 205.011 21.9067 205.011 24.44V33.2C205.011 35.4667 205.464 36.6 206.371 36.6C206.877 36.6 207.344 36.4267 207.771 36.08L208.371 37.24C207.997 37.9067 207.411 38.44 206.611 38.84C205.837 39.2133 204.957 39.4 203.971 39.4C202.744 39.4 201.811 39.0267 201.171 38.28C200.531 37.5333 200.211 36.48 200.211 35.12H200.011C199.237 36.5067 198.237 37.56 197.011 38.28C195.784 39 194.384 39.36 192.811 39.36C191.131 39.36 189.784 38.8933 188.771 37.96C187.757 37 187.251 35.76 187.251 34.24C187.251 33.0667 187.771 31.9733 188.811 30.96C189.851 29.92 191.584 28.9067 194.011 27.92L199.651 25.48ZM229.979 35.68C228.966 36.8 227.699 37.6667 226.179 38.28C224.686 38.8933 223.059 39.2 221.299 39.2C219.673 39.2 218.193 38.9467 216.859 38.44C215.526 37.9067 214.379 37.1733 213.419 36.24C212.459 35.3067 211.713 34.1867 211.179 32.88C210.673 31.5467 210.419 30.08 210.419 28.48C210.419 26.8267 210.699 25.32 211.259 23.96C211.819 22.6 212.606 21.44 213.619 20.48C214.633 19.4933 215.846 18.7333 217.259 18.2C218.673 17.6667 220.233 17.4 221.939 17.4C223.139 17.4 224.246 17.52 225.259 17.76C226.299 18 227.179 18.3333 227.899 18.76C228.646 19.1867 229.233 19.6933 229.659 20.28C230.086 20.84 230.299 21.4533 230.299 22.12C230.299 22.8933 230.073 23.5067 229.619 23.96C229.193 24.4133 228.606 24.64 227.859 24.64C227.246 24.64 226.699 24.48 226.219 24.16C225.766 23.84 225.313 23.32 224.859 22.6C224.459 21.96 224.113 21.4533 223.819 21.08C223.553 20.7067 223.299 20.4267 223.059 20.24C222.819 20.0267 222.579 19.8933 222.339 19.84C222.099 19.76 221.806 19.72 221.459 19.72C219.913 19.72 218.713 20.44 217.859 21.88C217.006 23.32 216.579 25.3333 216.579 27.92C216.579 30.6933 217.086 32.8267 218.099 34.32C219.139 35.8133 220.619 36.56 222.539 36.56C223.633 36.56 224.726 36.36 225.819 35.96C226.913 35.5333 227.953 34.9333 228.939 34.16L229.979 35.68ZM245.758 37.4C246.611 37.4 247.211 37.3733 247.558 37.32C247.904 37.24 248.078 37.0933 248.078 36.88C248.078 36.72 247.891 36.3333 247.518 35.72C247.171 35.08 246.718 34.3467 246.158 33.52L243.118 28.96L241.118 30.88V32.44C241.118 33.48 241.158 34.32 241.238 34.96C241.318 35.6 241.451 36.1067 241.638 36.48C241.851 36.8267 242.131 37.0667 242.478 37.2C242.851 37.3333 243.318 37.4 243.878 37.4V39H232.078V37.4C232.824 37.3733 233.424 37.2933 233.878 37.16C234.331 37.0267 234.691 36.8 234.958 36.48C235.224 36.1333 235.398 35.6667 235.478 35.08C235.584 34.4667 235.638 33.68 235.638 32.72V15.76C235.638 14.1333 235.611 12.8533 235.558 11.92C235.504 10.9867 235.358 10.2933 235.118 9.84C234.904 9.36 234.558 9.06667 234.077 8.96C233.624 8.85333 232.998 8.8 232.198 8.8V7.32L241.118 5.8V28.04L244.958 24.4C246.344 23.0933 247.331 22.12 247.918 21.48C248.504 20.8133 248.798 20.3333 248.798 20.04C248.798 19.8 248.544 19.64 248.038 19.56C247.558 19.4533 246.651 19.4 245.318 19.4V17.8H256.238V19.4C255.224 19.4 254.331 19.5733 253.558 19.92C252.784 20.2667 251.944 20.8667 251.038 21.72L247.158 25.36L254.078 35.16C254.691 36.0133 255.291 36.6 255.878 36.92C256.464 37.24 257.238 37.4 258.198 37.4V39H245.758V37.4Z" fill="white"/>
</g>
<path d="M262.528 20V19.36C262.891 19.3493 263.179 19.3173 263.392 19.264C263.616 19.2107 263.787 19.12 263.904 18.992C264.032 18.864 264.117 18.6827 264.16 18.448C264.203 18.2133 264.224 17.9093 264.224 17.536V10.144C264.224 9.77067 264.208 9.472 264.176 9.248C264.144 9.01333 264.075 8.832 263.968 8.704C263.872 8.56533 263.733 8.47467 263.552 8.432C263.381 8.37867 263.152 8.34133 262.864 8.32V7.68H268C269.611 7.68 270.848 7.94133 271.712 8.464C272.587 8.976 273.024 9.712 273.024 10.672C273.024 11.9413 272.112 12.8373 270.288 13.36V13.424C270.875 13.424 271.403 13.5093 271.872 13.68C272.352 13.84 272.757 14.0693 273.088 14.368C273.419 14.6667 273.675 15.0187 273.856 15.424C274.037 15.8293 274.128 16.272 274.128 16.752C274.128 17.296 273.995 17.7707 273.728 18.176C273.472 18.5813 273.099 18.9227 272.608 19.2C271.659 19.7333 270.352 20 268.688 20H262.528ZM268.8 19.024C270.517 19.024 271.376 18.2507 271.376 16.704C271.376 15.7547 271.067 15.0613 270.448 14.624C270.128 14.4 269.712 14.24 269.2 14.144C268.699 14.048 268.08 14 267.344 14H266.576V17.2C266.576 17.8613 266.747 18.3307 267.088 18.608C267.429 18.8853 268 19.024 268.8 19.024ZM267.52 13.04C268 13.04 268.416 12.9973 268.768 12.912C269.12 12.816 269.419 12.6827 269.664 12.512C270.176 12.16 270.432 11.6107 270.432 10.864C270.432 10.0853 270.24 9.52533 269.856 9.184C269.472 8.832 268.853 8.656 268 8.656H266.864C266.672 8.656 266.576 8.74667 266.576 8.928V13.04H267.52ZM283.39 18.512C282.419 19.6107 281.209 20.16 279.758 20.16C279.097 20.16 278.494 20.0587 277.95 19.856C277.417 19.6427 276.958 19.3493 276.574 18.976C276.19 18.592 275.891 18.1387 275.678 17.616C275.465 17.0933 275.358 16.512 275.358 15.872C275.358 15.2107 275.47 14.608 275.694 14.064C275.918 13.5093 276.233 13.0347 276.638 12.64C277.054 12.2347 277.539 11.92 278.094 11.696C278.659 11.472 279.278 11.36 279.95 11.36C281.081 11.36 281.961 11.664 282.59 12.272C283.219 12.88 283.534 13.7333 283.534 14.832C283.534 15.0027 283.507 15.1093 283.454 15.152C283.401 15.184 283.251 15.2 283.006 15.2H277.854C277.811 15.296 277.79 15.472 277.79 15.728C277.79 16.7733 278.014 17.6 278.462 18.208C278.921 18.816 279.539 19.12 280.318 19.12C280.766 19.12 281.209 19.0187 281.646 18.816C282.094 18.6133 282.526 18.3253 282.942 17.952L283.39 18.512ZM280.286 14.304C280.713 14.304 280.985 14.2827 281.102 14.24C281.23 14.1867 281.294 14.0693 281.294 13.888C281.294 13.4187 281.161 13.0347 280.894 12.736C280.627 12.4373 280.291 12.288 279.886 12.288C279.427 12.288 279.017 12.48 278.654 12.864C278.302 13.2373 278.073 13.7173 277.966 14.304H280.286ZM284.509 12.4V11.68C285.149 11.4987 285.683 11.2267 286.109 10.864C286.547 10.4907 286.872 10.064 287.085 9.584H287.901V11.52H289.741V12.4H287.901V17.312C287.901 17.9733 287.971 18.4427 288.109 18.72C288.259 18.9973 288.504 19.136 288.845 19.136C289.261 19.136 289.576 18.944 289.789 18.56L290.125 19.024C289.827 19.7813 289.123 20.16 288.013 20.16C287.277 20.16 286.701 19.9893 286.285 19.648C285.88 19.3067 285.677 18.8267 285.677 18.208V12.4H284.509ZM295.723 15.44C294.827 15.8453 294.149 16.224 293.691 16.576C293.243 16.9173 293.019 17.2747 293.019 17.648C293.019 17.9573 293.104 18.2027 293.275 18.384C293.445 18.5653 293.659 18.656 293.915 18.656C294.171 18.656 294.411 18.6133 294.635 18.528C294.859 18.432 295.051 18.3093 295.211 18.16C295.371 18.0107 295.493 17.8347 295.579 17.632C295.675 17.4187 295.723 17.1947 295.723 16.96V15.44ZM295.723 14.592V13.92C295.723 13.3013 295.611 12.8533 295.387 12.576C295.173 12.288 294.837 12.144 294.379 12.144C294.069 12.144 293.835 12.2293 293.675 12.4C293.515 12.56 293.365 12.832 293.227 13.216C293.131 13.4827 292.992 13.6907 292.811 13.84C292.64 13.9893 292.4 14.064 292.091 14.064C291.792 14.064 291.563 13.9733 291.403 13.792C291.243 13.6107 291.163 13.3547 291.163 13.024C291.163 12.512 291.44 12.1067 291.995 11.808C292.56 11.5093 293.408 11.36 294.539 11.36C295.733 11.36 296.587 11.5787 297.099 12.016C297.611 12.4427 297.867 13.1627 297.867 14.176V17.68C297.867 18.5867 298.048 19.04 298.411 19.04C298.613 19.04 298.8 18.9707 298.971 18.832L299.211 19.296C299.061 19.5627 298.827 19.776 298.507 19.936C298.197 20.0853 297.845 20.16 297.451 20.16C296.96 20.16 296.587 20.0107 296.331 19.712C296.075 19.4133 295.947 18.992 295.947 18.448H295.867C295.557 19.0027 295.157 19.424 294.667 19.712C294.176 20 293.616 20.144 292.987 20.144C292.315 20.144 291.776 19.9573 291.371 19.584C290.965 19.2 290.763 18.704 290.763 18.096C290.763 17.6267 290.971 17.1893 291.387 16.784C291.803 16.368 292.496 15.9627 293.467 15.568L295.723 14.592Z" fill="#FFDD5C"/>
<defs>
<filter id="filter0_d_2315_635" x="0.400024" y="3.79999" width="261.797" height="41.6" filterUnits="userSpaceOnUse" color-interpolation-filters="sRGB">
<feFlood flood-opacity="0" result="BackgroundImageFix"/>
<feColorMatrix in="SourceAlpha" type="matrix" values="0 0 0 0 0 0 0 0 0 0 0 0 0 0 0 0 0 0 127 0" result="hardAlpha"/>
<feOffset dy="2"/>
<feGaussianBlur stdDeviation="2"/>
<feComposite in2="hardAlpha" operator="out"/>
<feColorMatrix type="matrix" values="0 0 0 0 0 0 0 0 0 0 0 0 0 0 0 0 0 0 0.25 0"/>
<feBlend mode="normal" in2="BackgroundImageFix" result="effect1_dropShadow_2315_635"/>
<feBlend mode="normal" in="SourceGraphic" in2="effect1_dropShadow_2315_635" result="shape"/>
</filter>
</defs>
</svg>
